<svg xmlns="http://www.w3.org/2000/svg" width="100%" height="auto" viewBox="0 0 794 794" version="1.1" preserveAspectRatio="xMidYMid meet" style="max-width: 100%; max-height: 70vh;">
	<path d="M 377 118.114 C 342.926 120.828, 319.433 123.887, 304 127.619 C 280.762 133.238, 259.931 140.788, 243 149.727 C 199.522 172.682, 173.946 202.628, 163.569 242.726 C 152.680 284.803, 162.540 353.559, 188.705 418 C 198.681 442.567, 218.167 480.858, 235.017 509 C 245.807 527.022, 270.891 563.934, 281.906 578 C 283.844 580.475, 285.563 582.692, 285.725 582.926 C 286.539 584.105, 299.361 568.712, 301.907 563.500 C 304.774 557.631, 304.850 557.064, 305.385 537.500 C 306.146 509.673, 309.208 497.619, 317.802 488.634 C 322.484 483.738, 326.552 481.994, 333.218 482.024 C 341.367 482.060, 355.086 488.650, 361.500 495.608 C 362.600 496.802, 364.996 499.428, 366.825 501.445 C 369.674 504.586, 370.677 505.068, 373.825 504.806 L 377.500 504.500 384.661 486.500 C 388.599 476.600, 395.730 458.600, 400.507 446.500 C 405.284 434.400, 413.380 413.925, 418.499 401 C 423.618 388.075, 430.358 370.975, 433.476 363 C 436.594 355.025, 441.561 342.388, 444.513 334.918 C 451.089 318.275, 456.669 303.496, 461.028 291.176 L 464.327 281.852 462.163 277.399 C 460.973 274.950, 460 272.329, 460 271.574 C 460 270.819, 461.575 267.861, 463.500 265 C 467.470 259.101, 467.898 257.449, 465.066 258.965 C 462.267 260.463, 461.207 260.256, 459.985 257.973 C 459.075 256.271, 459.396 255.450, 461.991 252.855 C 464.910 249.936, 465.185 249.857, 466.933 251.439 C 468.024 252.427, 468.575 253.911, 468.275 255.057 C 467.405 258.385, 469.519 257.198, 472.936 252.439 C 476.380 247.644, 476.475 246.140, 473.224 247.880 C 471.809 248.637, 470.795 248.570, 469.516 247.635 C 467.261 245.986, 468.237 242.546, 471.581 240.355 C 473.590 239.039, 474.281 238.988, 475.575 240.062 C 476.435 240.776, 476.925 242.179, 476.663 243.180 C 475.894 246.120, 478.282 245.273, 481.250 241.553 C 484.779 237.131, 484.747 235.901, 481.121 236.626 C 477.744 237.301, 476.549 235.935, 477.433 232.409 C 478.245 229.174, 482.329 227.198, 484.493 228.994 C 485.396 229.744, 485.798 231.060, 485.455 232.141 C 484.476 235.228, 486.643 234.239, 489.916 230.106 C 491.612 227.964, 493 225.968, 493 225.669 C 493 225.370, 491.492 225.371, 489.648 225.670 C 485.835 226.288, 484.265 224.242, 486.027 220.950 C 488.413 216.491, 494 216.250, 494 220.607 C 494 223.867, 495.008 223.617, 498.250 219.553 C 501.809 215.093, 501.752 213.900, 498.015 214.647 C 494.363 215.377, 493.074 213.099, 495.051 209.406 C 497.479 204.867, 503.478 205.330, 502.763 210 C 502.326 212.852, 503.635 212.486, 506.811 208.868 C 510.836 204.284, 510.823 203.168, 506.750 203.353 C 503.922 203.481, 503.460 203.151, 503.190 200.813 C 502.958 198.809, 503.556 197.682, 505.541 196.381 C 508.749 194.279, 511.672 195.568, 511.187 198.870 C 510.813 201.420, 512.636 201.639, 515.168 199.348 C 517.205 197.504, 521.832 197.305, 524.868 198.929 C 528.526 200.887, 531.177 205.773, 531.252 210.694 C 531.326 215.630, 531.908 214.863, 521.865 223.065 C 518.894 225.492, 518.683 226.129, 517.961 234.854 C 517.009 246.339, 514.465 251.892, 505.482 262.089 C 497.094 271.611, 491.563 282.406, 483.386 305.216 C 479.781 315.272, 474.878 328.900, 472.489 335.500 C 470.101 342.100, 458.883 373.492, 447.561 405.260 C 436.239 437.028, 426.336 464.703, 425.554 466.760 C 424.771 468.817, 422.484 475.225, 420.471 481 C 418.457 486.775, 413.387 500.950, 409.204 512.500 C 403.092 529.378, 401.521 534.889, 401.199 540.577 C 400.842 546.892, 401.052 547.945, 403.149 550.346 C 406.265 553.913, 414.716 555.751, 420.580 554.138 C 426.048 552.632, 430.236 549.167, 438 539.720 C 447.025 528.739, 451.764 526.730, 458.686 530.950 C 463.099 533.641, 464.354 536.503, 464.246 543.636 C 464.074 555.014, 454.986 572.213, 441.116 587.410 C 437.145 591.761, 432.828 597.161, 431.523 599.410 C 425.425 609.920, 422.901 625.260, 424.927 639.500 C 425.553 643.900, 426.345 653.913, 426.688 661.750 C 427.031 669.587, 427.533 676, 427.805 676 C 428.901 676, 461.409 640.541, 475.018 624.500 C 491.498 605.076, 493.601 602.492, 504 588.893 C 537.102 545.602, 560.750 508.953, 583.299 466 C 616.445 402.859, 634.977 336.887, 634.987 282 C 634.995 234.636, 618.225 198.568, 583.078 170.352 C 563.805 154.880, 545.743 145.362, 516.760 135.405 C 476.221 121.477, 420.824 114.623, 377 118.114 M 511.563 314.879 C 509.974 317.951, 508.198 319, 504.585 319 C 501.032 319, 500.765 320.145, 503.622 323.127 C 505.917 325.522, 506.203 326.504, 505.759 330.447 C 505.187 335.524, 505.467 335.699, 510.404 333.344 C 513.635 331.804, 514.051 331.804, 516.403 333.344 C 520.547 336.060, 521.555 335.511, 521.176 330.750 C 520.896 327.227, 521.280 326.085, 523.419 324.076 C 526.778 320.921, 526.678 320.350, 522.637 319.592 C 519.225 318.952, 516.808 316.921, 515.683 313.750 C 514.776 311.190, 513.255 311.607, 511.563 314.879 M 497.018 352.971 C 494.905 356.390, 493.933 357.034, 490.032 357.599 C 487.539 357.960, 485.151 358.456, 484.725 358.702 C 484.299 358.948, 485.390 360.967, 487.149 363.188 C 490.209 367.052, 490.305 367.441, 489.347 372.114 C 488.210 377.664, 488.393 377.779, 494.587 375.414 C 498.502 373.918, 498.964 373.941, 502.620 375.806 C 504.754 376.895, 506.914 377.721, 507.421 377.643 C 507.927 377.564, 508.234 375.181, 508.103 372.347 C 507.879 367.517, 508.088 367.015, 511.432 364.347 C 513.394 362.781, 515 361.198, 515 360.829 C 515 360.461, 513.538 359.865, 511.750 359.505 C 505.502 358.247, 504.837 357.787, 502.961 353.409 C 501.922 350.984, 500.711 349, 500.272 349 C 499.832 349, 498.368 350.787, 497.018 352.971 M 479.703 395.534 C 476.691 401.674, 476.815 401.596, 468.750 402.499 C 465.230 402.894, 463 403.619, 463 404.369 C 463 405.043, 464.800 407.352, 467 409.500 C 471.292 413.691, 472.007 417.003, 470.074 423.743 C 469.562 425.525, 469.532 427.211, 470.006 427.504 C 470.479 427.796, 473.482 426.837, 476.682 425.374 L 482.498 422.714 488.412 425.815 C 491.665 427.521, 494.627 428.731, 494.994 428.504 C 495.361 428.277, 495.232 425.105, 494.708 421.455 L 493.753 414.819 498.566 409.933 C 501.214 407.245, 503.182 404.880, 502.940 404.676 C 502.698 404.473, 499.660 403.720, 496.189 403.004 L 489.878 401.701 486.924 395.850 C 485.300 392.633, 483.621 390, 483.194 390 C 482.766 390, 481.195 392.490, 479.703 395.534 M 462.884 445.750 C 459.986 450.519, 459.296 450.966, 454.809 450.985 C 449.622 451.006, 449.214 452.605, 453.313 456.840 C 456.685 460.324, 456.815 460.716, 456.018 464.991 C 455.557 467.462, 455.382 469.810, 455.629 470.209 C 455.876 470.609, 458.107 469.950, 460.587 468.745 L 465.096 466.555 469.298 468.780 C 471.609 470.004, 473.870 471.004, 474.322 471.003 C 474.774 471.001, 474.853 468.637, 474.497 465.750 C 473.874 460.688, 473.979 460.377, 477.425 457.054 C 481.405 453.217, 481.843 452.003, 479.250 451.994 C 478.288 451.991, 475.880 451.539, 473.899 450.989 C 471.082 450.206, 469.907 449.119, 468.497 445.994 C 467.507 443.797, 466.351 442, 465.930 442 C 465.508 442, 464.138 443.688, 462.884 445.750 M 448.144 488.481 C 446.503 491.261, 445.276 492.092, 442.045 492.609 C 439.820 492.965, 438 493.570, 438 493.953 C 438 494.337, 439.153 495.734, 440.562 497.058 C 442.853 499.211, 443.055 499.968, 442.468 504.232 C 442.107 506.855, 442.064 509, 442.372 509 C 442.680 509, 444.522 508.242, 446.466 507.315 C 449.780 505.735, 450.220 505.735, 453.534 507.315 C 455.478 508.242, 457.298 509, 457.580 509 C 457.862 509, 457.984 506.914, 457.852 504.365 C 457.647 500.392, 458.005 499.392, 460.364 497.363 C 463.582 494.595, 463.067 493, 458.955 493 C 456.648 493, 455.468 492.153, 453.381 489 C 451.925 486.800, 450.613 485, 450.466 485 C 450.318 485, 449.273 486.566, 448.144 488.481" stroke="none" fill="black" fill-rule="evenodd"/>
</svg>