<svg xmlns="http://www.w3.org/2000/svg" width="100%" height="auto" viewBox="0 0 851 803" version="1.1" preserveAspectRatio="xMidYMid meet" style="max-width: 100%; max-height: 70vh;">
	<path d="M 774.359 15.207 C 763.475 25.472, 717.489 80.766, 708.197 94.759 C 703.799 101.382, 702.804 108.301, 705.729 111.914 L 707.667 114.306 710.839 111.961 C 715.557 108.473, 722.147 100.264, 723.546 96.133 C 724.228 94.121, 725.947 91.831, 727.400 91 C 729.764 89.648, 730.322 89.670, 733.041 91.221 C 736.059 92.941, 736.060 92.941, 740.102 89.289 C 745.124 84.751, 748 79.263, 748 74.214 C 748 70.028, 751.129 66, 754.380 66 C 755.343 66, 756.983 65.544, 758.025 64.987 C 760.561 63.629, 768.670 52.161, 769.538 48.705 C 770.647 44.285, 776.395 42.361, 779.025 45.530 C 780.891 47.778, 778.806 51.627, 774.784 53.358 C 770.419 55.237, 765.296 60.774, 752.913 77 C 716.861 124.239, 718.094 122.347, 720.439 126.881 C 722.219 130.324, 729.497 137, 731.470 137 C 733.449 137, 748 122.532, 748 120.564 C 748 119.704, 747.753 119, 747.450 119 C 746.261 119, 740.773 122.225, 734.490 126.618 C 730.863 129.153, 727.678 131.012, 727.414 130.747 C 726.757 130.090, 731.267 126.335, 747.523 114 C 755.135 108.225, 764.201 100.800, 767.672 97.500 C 771.142 94.200, 776.357 90.262, 779.260 88.748 C 785.947 85.262, 795.136 77.278, 794.928 75.135 C 794.337 69.038, 799.848 65.742, 804.139 69.626 C 806.650 71.898, 805.345 73.865, 797.718 79.307 C 791.866 83.483, 789.068 86.298, 781.714 95.406 C 780.058 97.458, 777.625 99.139, 775.714 99.552 C 771.035 100.563, 764.080 104.307, 759.533 108.263 L 755.567 111.713 757.425 115.834 C 759.646 120.758, 758.945 122.046, 752.488 124.902 C 747.564 127.080, 734.612 139.335, 735.239 141.222 C 735.473 141.925, 736.875 142.928, 738.355 143.451 C 744.984 145.794, 756.016 139.455, 781 118.948 C 812.127 93.400, 837 70.954, 837 68.412 C 837 67.643, 833.760 63.297, 829.799 58.756 C 820.414 47.995, 785.158 12.690, 782.236 11.126 C 780.177 10.024, 779.460 10.396, 774.359 15.207 M 750.077 24.077 C 746.383 27.771, 746.222 29.444, 749.365 31.504 C 752.531 33.578, 756.380 32.099, 758.504 27.993 C 762.085 21.067, 755.942 18.212, 750.077 24.077 M 731.842 46.153 C 725.324 49.957, 724.216 55.982, 729.879 56.823 C 733.185 57.314, 739.232 50.867, 738.819 47.289 C 738.414 43.774, 736.463 43.457, 731.842 46.153 M 710.244 71.528 C 706.780 73.975, 704.714 78.596, 706.005 81.009 C 707.531 83.861, 710.394 83.471, 714.517 79.851 C 717.412 77.309, 718.046 76.102, 717.802 73.601 C 717.562 71.134, 716.988 70.442, 715 70.217 C 713.625 70.061, 711.485 70.651, 710.244 71.528 M 819.635 90.073 C 816.570 92.484, 816.004 97.929, 818.595 100.079 C 820.797 101.906, 824.684 99.630, 827.098 95.100 C 830.411 88.883, 825.421 85.521, 819.635 90.073 M 719.717 105.975 C 713.537 111.624, 710.525 116.722, 712.186 118.724 C 712.768 119.426, 713.773 120, 714.419 120 C 716.860 120, 729 105.304, 729 102.350 C 729 99.587, 724.996 101.151, 719.717 105.975 M 797.500 110.147 C 790.878 113.877, 788.898 119.250, 793.500 121 C 797.253 122.427, 800.845 120.615, 802.603 116.408 C 803.431 114.426, 803.967 112.060, 803.794 111.152 C 803.410 109.133, 800.207 108.622, 797.500 110.147 M 692.006 121.090 C 680.925 129.848, 652.931 157.258, 559.835 250.500 L 463.170 347.317 458.335 343.620 C 429.640 321.679, 411.150 312.151, 390.119 308.468 C 358.692 302.964, 330.639 313.412, 305.841 339.856 C 296.015 350.334, 288.780 360.675, 279.505 377.500 C 275.260 385.200, 269.845 394.232, 267.471 397.570 C 261.582 405.854, 252.335 414.189, 243.700 418.997 C 231.422 425.833, 221.256 428.689, 167 440.544 C 141.787 446.053, 130.525 449.534, 118.473 455.543 C 88.260 470.606, 64.318 497.563, 53.231 529 C 47.734 544.588, 46.512 552.599, 46.523 573 C 46.532 588.471, 46.919 593.383, 48.886 603 C 53.210 624.138, 61.438 646.310, 72.101 665.559 C 99.642 715.274, 140.878 755.489, 189.500 780.050 C 218.855 794.879, 238.051 800.038, 269.819 801.638 C 308.937 803.607, 340.320 791.791, 367.019 765.040 C 392.270 739.740, 399.383 723.536, 412.025 662.500 C 419.185 627.931, 421.594 619.624, 428.191 606.748 C 436.271 590.977, 445.347 582.815, 469.124 569.934 C 501.573 552.356, 521.540 533.840, 532.716 510.963 C 540.981 494.048, 543.403 479.255, 540.570 463 C 536.324 438.633, 523.720 412.135, 507.566 393.612 C 503.955 389.472, 501 385.729, 501 385.294 C 501 384.860, 539.175 346.253, 585.833 299.502 C 696.909 188.205, 731 153.311, 731 150.920 C 731 149.840, 730.311 149, 729.427 149 C 726.780 149, 693.132 181.948, 549.306 325.373 L 411.049 463.245 411.671 476.927 C 412.319 491.167, 411.537 497.217, 407.978 505.500 C 405.534 511.189, 399.322 519.094, 393.549 523.860 C 385.671 530.367, 382.123 531.223, 361 531.720 L 342.500 532.155 293.750 580.824 C 266.937 607.592, 245 630.019, 245 630.663 C 245 631.854, 252.287 639.953, 270.702 659.228 C 282.356 671.427, 283.675 674.162, 279.596 677.671 C 278.107 678.952, 276.224 680, 275.412 680 C 273.222 680, 262.115 673.735, 247.996 664.536 C 218.877 645.564, 196.106 621.586, 177.547 590.351 C 168.044 574.357, 167.061 569.862, 172.344 566.567 C 175.205 564.782, 179.719 568.309, 198.822 587.250 C 208.668 597.013, 217.125 605, 217.615 605 C 218.106 605, 240.414 583.063, 267.189 556.250 L 315.870 507.500 316.185 488 C 316.499 468.538, 316.506 468.489, 319.474 463 C 323.635 455.303, 335.251 443.973, 342.493 440.547 C 351.600 436.238, 362.703 434.588, 372.616 436.068 L 380.732 437.281 385.116 434.240 C 395.049 427.352, 423.091 400.006, 533 290.031 C 664.101 158.850, 699.996 121.821, 699.999 117.750 C 700.001 115.960, 696.807 117.294, 692.006 121.090 M 669.807 157.328 C 636.182 189.993, 454.183 372.989, 421.992 406.500 C 388.281 441.593, 379.876 453.302, 403.500 432.259 C 418.735 418.689, 455.162 382.912, 563.500 275.114 C 617.950 220.936, 671.950 167.359, 683.500 156.054 L 704.499 135.500 685.504 155 C 675.056 165.725, 622.831 218.375, 569.449 272 C 418.506 423.627, 395.632 447.418, 398.866 449.417 C 401.707 451.173, 472.244 382.554, 629 225.541 L 718.500 135.895 712.223 129.947 C 708.771 126.676, 705.534 124, 705.030 124 C 704.526 124, 688.676 138.998, 669.807 157.328 M 768.149 134.483 C 764.717 138.392, 764.185 141.079, 766.469 142.975 C 767.642 143.948, 768.698 143.822, 771.705 142.347 C 778.711 138.912, 780.018 131.949, 773.798 131.198 C 771.967 130.977, 770.457 131.854, 768.149 134.483 M 656.780 202.674 C 541.799 316.992, 409.836 450.268, 406.334 455.613 C 403.970 459.221, 405.928 460.912, 409.699 458.520 C 413.431 456.152, 662.093 207.275, 696.830 171.140 C 711.825 155.542, 723.923 142.267, 723.714 141.640 C 723.505 141.013, 722.577 140.353, 721.652 140.174 C 720.541 139.958, 698.539 161.156, 656.780 202.674 M 714 282.500 C 714 283.325, 714.675 284, 715.500 284 C 716.325 284, 717 283.325, 717 282.500 C 717 281.675, 716.325 281, 715.500 281 C 714.675 281, 714 281.675, 714 282.500 M 659 340.500 C 659 341.333, 659.889 342, 661 342 C 662.111 342, 663 341.333, 663 340.500 C 663 339.667, 662.111 339, 661 339 C 659.889 339, 659 339.667, 659 340.500 M 350.863 444.911 C 340.855 448.112, 333.629 454.617, 328.275 465.245 C 326.169 469.426, 325.560 472.238, 325.294 479 L 324.960 487.500 328.821 479.700 C 335.535 466.136, 345.832 458.183, 359.511 455.998 C 368.641 454.540, 375 450.511, 375 446.184 C 375 444.829, 366.958 442.991, 361.307 443.054 C 358.663 443.083, 353.963 443.919, 350.863 444.911 M 379 449.876 C 376.415 450.952, 372 454.194, 372 455.017 C 372 455.450, 373.269 456.247, 374.820 456.787 C 378.594 458.103, 384 455.922, 384 453.083 C 384 450.761, 381.195 448.962, 379 449.876 M 385.960 456.832 C 384.066 458.365, 383.908 458.960, 384.902 460.817 C 386.803 464.369, 392 463.353, 392 459.428 C 392 455.960, 388.758 454.566, 385.960 456.832 M 393.818 465.500 C 392.966 467.370, 392.966 468.630, 393.818 470.500 C 395.971 475.226, 398.163 472.471, 397.242 466.195 C 396.679 462.360, 395.370 462.095, 393.818 465.500 M 309.746 518.250 C 299.536 527.369, 237.653 589.296, 227.305 600.750 C 221.873 606.763, 220.964 608.252, 221.983 609.479 C 224.558 612.582, 230.501 607.541, 267.860 570.561 C 307.656 531.169, 321.984 515.472, 321.996 511.250 C 322.005 508.430, 318.497 510.434, 309.746 518.250 M 279.603 562.182 C 237.884 603.808, 229 613.370, 229 616.650 C 229 619.304, 233.016 617.924, 238.711 613.315 C 247.840 605.926, 284.594 570.222, 302.994 550.868 C 326.468 526.177, 331.617 518.943, 326.260 518.182 C 324.467 517.927, 315.156 526.707, 279.603 562.182 M 285.869 573.691 C 258.991 600.471, 237 622.985, 237 623.723 C 237 626.748, 240.238 626.062, 245.763 621.866 C 253.598 615.915, 328.712 540.901, 333.985 533.762 C 337.980 528.352, 338.713 525, 335.901 525 C 335.262 525, 312.748 546.911, 285.869 573.691 M 211.408 609.378 C 210.599 611.487, 211.735 613, 214.129 613 C 215.639 613, 216.060 612.443, 215.820 610.760 C 215.447 608.146, 212.264 607.149, 211.408 609.378 M 219.364 617.493 C 219.018 618.396, 219.214 619.614, 219.800 620.200 C 221.324 621.724, 224.210 620.331, 223.812 618.265 C 223.369 615.963, 220.165 615.407, 219.364 617.493 M 227.992 626.015 C 227.133 627.621, 227.247 628.158, 228.558 628.661 C 230.223 629.299, 231.956 627.574, 231.985 625.250 C 232.009 623.260, 229.176 623.803, 227.992 626.015 M 235.965 633.542 C 234.991 634.716, 234.963 635.363, 235.850 636.250 C 237.280 637.680, 240.632 634.831, 239.559 633.096 C 238.624 631.582, 237.473 631.725, 235.965 633.542" stroke="none" fill="black" fill-rule="evenodd"/>
</svg>